<svg xmlns="http://www.w3.org/2000/svg" viewBox="0 0 64 64">
  <defs>
    <linearGradient id="bg" x1="0%" y1="0%" x2="100%" y2="100%">
      <stop offset="0%" stop-color="#0f172a"/>
      <stop offset="100%" stop-color="#1e293b"/>
    </linearGradient>
    <linearGradient id="accent" x1="0%" y1="0%" x2="100%" y2="100%">
      <stop offset="0%" stop-color="#22d3ee"/>
      <stop offset="100%" stop-color="#0ea5e9"/>
    </linearGradient>
  </defs>
  <rect x="2" y="2" width="60" height="60" rx="14" fill="url(#bg)"/>
  <rect x="2" y="2" width="60" height="60" rx="14" fill="none" stroke="#334155"/>
  <path d="M17 44V20h4l14 17V20h4v24h-4L21 27v17h-4Z" fill="#f8fafc"/>
  <path d="M43 20h8c5 0 8 2.6 8 6.5 0 2.4-1.3 4.4-3.4 5.3 2.7.8 4.4 3 4.4 5.9 0 4.1-3.3 6.3-8.3 6.3H43V20Zm4 10h4c2.5 0 3.9-1.1 3.9-3s-1.4-3-3.9-3h-4v6Zm0 10h4.8c2.7 0 4.1-1 4.1-3.1s-1.5-3.1-4.1-3.1H47V40Z" fill="url(#accent)"/>
  <circle cx="52" cy="12" r="3" fill="#22d3ee"/>
</svg>
